<?xml version="1.0" encoding="UTF-8"?>
<!DOCTYPE svg PUBLIC "-//W3C//DTD SVG 1.1//EN" "http://www.w3.org/Graphics/SVG/1.1/DTD/svg11.dtd">
<!-- Creator: CorelDRAW -->
<svg xmlns="http://www.w3.org/2000/svg" xml:space="preserve" width="64.8152mm" height="64.7662mm" version="1.1" style="shape-rendering:geometricPrecision; text-rendering:geometricPrecision; image-rendering:optimizeQuality; fill-rule:evenodd; clip-rule:evenodd"
viewBox="0 0 313.26 313.03"
 xmlns:xlink="http://www.w3.org/1999/xlink"
 xmlns:xodm="http://www.corel.com/coreldraw/odm/2003">
 <defs>
  <style type="text/css">
   <![CDATA[
    .fil0 {fill:#00A0FF;fill-rule:nonzero}
   ]]>
  </style>
 </defs>
 <g id="Camada_x0020_1">
  <metadata id="CorelCorpID_0Corel-Layer"/>
  <path class="fil0" d="M106.12 291.55c-2.43,-2.31 -3.15,-4.16 -2.21,-5.13 -0.45,-2.32 -0.54,-5.31 -0.54,-9.17 0,-5.08 -0.18,-7.95 -0.82,-9.58 -1.37,-1.02 -4.31,-2.44 -7.79,-3.68 -2.36,-0.84 -4.27,-1.71 -5.69,-2.58 -5.1,-1.59 -7.14,-0.07 -13.26,6.2 -4.13,4.31 -8.79,7.75 -10.34,7.75 -3.27,0 -46.51,-43.07 -46.51,-46.51 0,-1.38 3.62,-6.03 7.92,-10.51 7.75,-7.92 7.75,-7.92 5.17,-13.78 -1,-2.38 -2.1,-5.41 -2.82,-7.81 -0.28,-0.54 -0.49,-1.1 -0.62,-1.66 -0.69,-2.58 -2.41,-4.13 -4.48,-4.13 -0.87,0 -1.58,-0.2 -2.13,-0.54 -1.25,0.03 -2.76,0.1 -4.59,0.2 -17.74,1.03 -17.4,1.89 -17.4,-34.97 0,-36.52 -0.52,-35.31 16.71,-35.31 9.99,0 9.99,0 13.78,-9.82 3.96,-9.82 3.96,-9.82 -3.79,-17.74 -4.31,-4.31 -7.75,-9.13 -7.75,-10.51 0,-2.49 25.05,-27.93 38.52,-40.02 -0.17,-0.47 0.56,-1.32 1.96,-2.87 1.66,-1.82 4.27,-3.33 6.16,-3.44 0.01,-0 0.03,-0.01 0.04,-0.01l0.06 0 0.11 -0c1.23,0 2.16,0.5 2.67,1.47 2.01,1.39 4.73,3.63 7.32,6.11 7.75,7.75 7.75,7.75 18.6,3.96 10.68,-3.79 10.68,-3.79 10.68,-14.99 0,-6.55 0.86,-12.23 2.07,-13.44 2.76,-2.76 37.9,-2.76 40.65,0 1.21,1.21 2.07,7.41 2.07,15.5 0,13.61 0,13.61 14.3,13.09 14.13,-0.52 14.13,-0.52 14.64,-12.92 0.52,-12.58 0.52,-12.58 -5.34,-12.58 -1.19,0 -2.29,-0.11 -3.29,-0.31 -1.69,0.69 -4.01,0.52 -5.32,-0.89 -2.24,-2.07 -1.21,-7.58 1.55,-8.61 0.78,-0.3 1.54,-0.32 2.24,-0.1 1.96,-0.31 4.8,-0.42 8.95,-0.42 3.82,0 6.41,0 8.17,0.51 0.27,-0.36 0.59,-0.51 0.96,-0.51 3.62,0 4.48,3.96 4.48,20.67 0,7.57 0.36,12.28 1.14,14.51 1.25,0.84 3.03,0.99 5.58,0.99 2.1,0 3.48,-0 4.38,-0.77 0.61,-0.72 0.96,-1.92 0.96,-3.53 0,-1.31 0.15,-2.28 0.53,-2.97 0.07,-2.91 -0.04,-6.99 -0.18,-12.71 -0.86,-25.15 0,-28.6 6.2,-27.91 4.65,0.52 4.65,0.52 5.51,23.77 0.86,23.26 0.86,23.26 7.24,23.77 6.37,0.52 6.37,0.52 6.89,-17.23 0.52,-17.74 0.52,-17.74 12.23,-18.26 9.65,-0.34 11.71,0 12.75,2.41 1.72,4.48 -1.72,8.44 -7.92,8.96 -5.34,0.52 -5.34,0.52 -5.34,12.4 0,11.89 0,11.89 10.85,12.4 3.43,0.17 5.76,0.28 7.36,1.57 0.13,-1.24 0.26,-1.92 0.4,-1.92 4.82,0 5.51,5.17 5.51,39.1 0,19.55 0.15,28.47 0.87,32.32 1.92,2.65 5.2,2.52 10.84,2.31 13.26,-0.52 13.26,-0.52 13.78,-6.55 0.69,-7.41 2.41,-9.3 7.06,-7.75 3.1,1.03 3.62,2.41 3.62,11.89 0,6.03 -0.86,11.54 -2.07,12.75 -1.38,1.38 -7.92,2.07 -18.09,2.07 -9.13,0 -13.06,0.06 -14.96,0.92 -1.12,2.53 -1.38,7.59 -0.53,9.91 3.05,0.79 10.81,1.23 21.52,1.23 12.06,0 22.91,0.69 24.12,1.55 1.38,0.69 2.07,3.27 1.72,5.51 -0.52,4.13 -0.69,4.13 -23.77,4.65 -14.52,0.31 -20.92,0.62 -23.71,2.48 -0.91,3.2 -0.43,8.21 1.25,9.58 2.4,0.32 6.5,0.35 13.51,0.35 10.85,0 17.57,0.69 18.95,2.07 1.21,1.21 2.07,6.72 2.07,12.92 0,8.61 -0.69,11.2 -2.76,12.06 -4.48,1.72 -8.44,-1.89 -8.96,-7.92 -0.52,-5.34 -0.52,-5.34 -13.44,-5.34 -5.25,0 -8.33,0 -10.15,2.51 -0.73,3.66 -0.88,12.19 -0.88,30.91 0,34.67 -0.51,38.9 -4.44,38.93 -2.1,2.17 -5.79,1.72 -12.27,1.72 -7.41,0 -7.41,0 -7.41,11.89 0,12.06 0,12.06 5.34,12.58 0.33,0.03 0.66,0.07 0.98,0.12 0.63,-0.31 1.54,-0.34 2.81,-0.12 3.24,0.45 5.03,3.79 4.52,6.09 0.11,0.91 -0.01,1.88 -0.39,2.87 -0.86,2.07 -3.45,2.76 -11.2,2.76 -3.36,0 -6.01,-0.12 -8.11,-0.56 -0.94,1 -2.63,0.26 -4.99,-2.2 -2.63,-2.52 -3.29,-4.27 -1.97,-5.17 -0.64,-3.1 -0.79,-7.37 -0.79,-13.27 0,-14.99 0,-14.99 -6.03,-14.99 -6.03,0 -6.03,0 -6.03,25.49 0,28.6 -1.21,32.39 -8.96,27.73l-0 0c-2.76,-1.55 -3.1,-4.82 -3.1,-27.56 0,-25.84 0,-25.84 -6.37,-25.32 -2.25,0.18 -3.72,0.29 -4.73,1.07 -0.59,2.41 -0.96,7.74 -0.96,14.61 0,14.99 -1.38,20.15 -5.51,20.15 -0.14,0 -0.29,-0.39 -0.42,-1.1 -1.41,0.5 -3.36,0.61 -6.12,0.76 -2.49,0.11 -4.74,0.04 -6.69,-0.19 -1.74,1.05 -4.61,0.6 -6.74,-1.54l-0 -0c-1.53,-1.53 -2.16,-2.69 -1.83,-3.48 -0.03,-0.78 0.23,-1.64 0.79,-2.55 1.03,-1.72 4.48,-3.45 7.75,-3.96 5.86,-0.86 5.86,-0.86 6.37,-12.4 0.52,-11.71 0.52,-11.71 -13.26,-11.71 -13.61,0 -13.61,0 -14.3,15.16 -0.69,20.84 -0.86,21.02 -23.77,21.02 -7.44,0 -12.59,-0.11 -16.16,-0.84 -0.89,1.38 -2.66,0.74 -5.2,-1.92l0 -0zm124.2 -106.8c-0.69,-0.69 -1.21,-15.5 -1.21,-32.9 0,-15.58 0,-23.46 0.62,-27.44 -0.41,-0.36 -0.62,-0.8 -0.62,-1.33l0 0c0,-2.93 4.13,-4.82 7.75,-3.45 2.92,1.19 3.33,3.19 1.86,4.52 0.64,3.97 0.55,12.06 0.38,28.55 -0.52,31.01 -0.69,32.21 -3.96,32.73 -2.07,0.34 -4.13,0 -4.82,-0.69l-0 -0zm-66.17 -6.57c-0.4,-4.15 -0.47,-10.91 -0.16,-20.99 0.51,-22.93 0.52,-23.42 7.3,-29.56 0.44,-0.62 1.53,-1.56 3.21,-2.99l0 0c3.95,-3.52 6.16,-4.72 7.24,-3.74 8.96,-3.56 17.82,-1.64 24.57,5.34 0.47,0.29 1.1,0.87 1.96,1.68 1.89,1.72 4.13,5.34 5.17,8.1 0.85,2.54 1.18,3.8 0.72,4.41 0.89,4.16 1.18,9.91 1.18,20.22 0,22.57 -0.69,25.15 -6.03,25.15 -0.45,0 -0.87,-0.04 -1.27,-0.13 -1.25,0.6 -2.76,-0.16 -3.73,-2.63 -0.95,-2.5 -1.21,-4.4 -0.79,-5.67 -0.16,-1.62 -0.24,-3.51 -0.24,-5.7 0,-6.55 0,-6.55 -13.78,-6.55 -13.78,0 -13.78,0 -13.78,8.27 0,8.44 -3.03,13.35 -6.77,12.4 -1.67,-0.04 -3.59,-0.54 -4.08,-1.2l0 0c-0.69,-0.52 -1.21,-2.58 -1.21,-4.31 0,-0.92 0.15,-1.61 0.5,-2.09zm39.12 -31.84c0,-8.61 -4.31,-13.78 -12.4,-14.99 -8.79,-1.55 -15.16,4.82 -15.16,14.81 0,6.89 0,6.89 13.78,6.89 13.78,0 13.78,0 13.78,-6.72l-0 0zm-78.48 -70.11c-1.26,0.43 -2.74,0.76 -4.38,0.92 -19.43,5.05 -44.18,23.52 -52.54,40.25 -3.21,6.3 -7.75,22.69 -9.62,32.92 0.24,1.17 0.32,2.87 0.32,5.32 0,2.64 -0.08,4.41 -0.38,5.59 0.37,1.98 0.75,4.69 1.07,7.33 0.06,0.54 0.13,1.08 0.2,1.61 0.55,1.67 0.82,3.31 0.8,4.71 0.84,4.05 2.04,7.76 3.68,11.39 0.22,0.38 0.44,0.8 0.66,1.24 0.73,1.38 1.29,2.48 1.7,3.37 0.89,1.57 1.87,3.14 2.96,4.73 1.36,2.08 2.62,4.17 3.52,5.8 1.01,1.12 2.23,2.8 3.72,5.05 0.82,1.29 1.5,2.5 2,3.54 2.68,2.61 6.27,5.68 9.85,8.43 0.77,0.51 1.54,1.08 2.25,1.68 2.1,1.53 4.12,2.9 5.88,3.92 4.31,2.41 10.85,5.34 14.64,6.55 2.33,0.74 4.72,1.61 6.42,2.37 0.87,0.04 2.05,0.34 3.57,0.9 6.7,2.49 14.95,2.45 16.46,0.12 0.7,-8.61 0.87,-34.81 0.59,-77.64l0 -0c-0.34,-81.14 -0.34,-81.14 -10.34,-80.45 -0.99,0.07 -2,0.19 -3.03,0.35zm128.43 76.83c0,-93.02 0,-93.02 -13.78,-93.02 -5.3,0 -9.57,-0.3 -11.88,-0.79 -1.82,0.33 -4.66,0.53 -9.09,0.64 -0.07,0.14 -0.17,0.14 -0.31,0.01 -5.99,0.14 -14.81,0.14 -27.82,0.14 -27.91,0 -37.09,0.22 -39.63,1.46 -0.45,9.39 -0.85,47.83 -0.85,92.59 0,91.99 0,91.99 51.68,91.99 51.68,0 51.68,0 51.68,-93.02l0 0z"/>
 </g>
</svg>
