<?xml version="1.0" standalone="no"?>
<!DOCTYPE svg PUBLIC "-//W3C//DTD SVG 20010904//EN"
 "http://www.w3.org/TR/2001/REC-SVG-20010904/DTD/svg10.dtd">
<svg version="1.0" xmlns="http://www.w3.org/2000/svg"
 width="512.000000pt" height="512.000000pt" viewBox="0 0 512.000000 512.000000"
 preserveAspectRatio="xMidYMid meet">

<g transform="translate(0.000000,512.000000) scale(0.100000,-0.100000)"
fill="#000000" stroke="none">
<path d="M167 3453 c-117 -321 -160 -568 -159 -908 1 -207 17 -358 58 -545
191 -856 824 -1567 1653 -1854 470 -163 987 -187 1461 -66 664 169 1214 577
1571 1166 262 432 391 954 359 1459 -18 278 -61 484 -157 748 l-35 97 -655 0
-654 0 79 -60 c432 -325 609 -911 430 -1418 -84 -239 -228 -437 -435 -599 -46
-36 -84 -65 -85 -66 -1 -1 -4 -105 -7 -230 l-6 -228 -185 131 c-102 73 -197
138 -213 146 -23 12 -41 13 -115 3 -168 -23 -371 0 -553 61 -85 28 -335 147
-327 155 2 3 68 13 145 24 242 34 397 84 570 183 128 74 217 144 329 260 252
262 385 577 401 943 9 215 -20 380 -104 598 l-38 97 -102 0 c-57 0 -103 -2
-103 -5 0 -3 15 -36 34 -73 142 -284 169 -641 71 -947 -137 -426 -502 -754
-947 -851 -95 -21 -324 -29 -411 -16 -41 7 -78 7 -92 2 -12 -5 -109 -70 -214
-144 -106 -75 -194 -136 -197 -136 -2 0 -4 94 -4 210 0 139 -4 218 -12 235 -6
14 -40 46 -74 71 -193 137 -372 384 -448 617 -48 146 -60 231 -60 397 0 213
32 361 118 545 l45 95 -449 0 -448 0 -35 -97z"/>
<path d="M1396 3284 c-38 -39 -36 -93 5 -128 l31 -26 383 0 384 0 28 24 c22
19 28 32 28 66 0 34 -6 47 -28 66 l-28 24 -388 0 -388 0 -27 -26z"/>
<path d="M1395 2665 c-19 -18 -25 -35 -25 -65 0 -30 6 -47 25 -65 l24 -25 771
0 772 0 29 29 c39 40 39 82 0 122 l-29 29 -772 0 -771 0 -24 -25z"/>
</g>
</svg>
