<?xml version="1.0" encoding="UTF-8"?>
<!DOCTYPE svg PUBLIC "-//W3C//DTD SVG 1.1//EN" "http://www.w3.org/Graphics/SVG/1.1/DTD/svg11.dtd">
<svg xmlns="http://www.w3.org/2000/svg" version="1.1" width="3730px" height="1163px" style="shape-rendering:geometricPrecision; text-rendering:geometricPrecision; image-rendering:optimizeQuality; fill-rule:evenodd; clip-rule:evenodd" xmlns:xlink="http://www.w3.org/1999/xlink">
<g><path style="opacity:0.989" fill="#009ffe" d="M 578.5,197.5 C 582.142,198.08 585.809,198.58 589.5,199C 591.815,200.109 593.315,201.943 594,204.5C 594.886,209.47 595.552,214.47 596,219.5C 597.112,245.513 598.445,271.513 600,297.5C 600.452,300.877 601.118,304.211 602,307.5C 603.167,310 605,311.833 607.5,313C 613.119,314.299 618.786,314.632 624.5,314C 628.458,310.478 630.292,305.978 630,300.5C 630.81,281.819 631.81,263.153 633,244.5C 633.11,236.404 636.944,231.238 644.5,229C 659.518,227.058 674.518,227.058 689.5,229C 696.531,237.195 695.864,244.862 687.5,252C 680.455,255.01 673.122,257.01 665.5,258C 664.333,258.5 663.5,259.333 663,260.5C 660.337,275.776 660.004,291.11 662,306.5C 664.023,312.407 668.189,315.24 674.5,315C 684.305,315.247 693.972,316.413 703.5,318.5C 706.21,314.864 709.376,314.531 713,317.5C 714.275,319.717 715.275,322.051 716,324.5C 717.794,333.408 718.794,342.408 719,351.5C 719.333,383.167 719.667,414.833 720,446.5C 720.153,460.865 720.82,475.198 722,489.5C 727.58,494.733 734.247,496.733 742,495.5C 753.625,495.392 765.125,494.226 776.5,492C 778.049,490.786 779.215,489.286 780,487.5C 780.886,482.53 781.552,477.53 782,472.5C 784.735,458.799 792.235,455.632 804.5,463C 806.823,467.86 807.989,473.027 808,478.5C 808.768,490.248 808.101,501.915 806,513.5C 805.562,516.376 804.562,519.043 803,521.5C 799.08,523.472 794.914,524.639 790.5,525C 771.188,526.159 751.855,526.826 732.5,527C 729.628,527.315 726.795,527.815 724,528.5C 723.055,528.905 722.388,529.572 722,530.5C 721.073,534.013 720.239,537.513 719.5,541C 720.293,544.411 720.793,547.911 721,551.5C 726.356,552.99 731.856,553.823 737.5,554C 761.831,554.752 786.164,555.419 810.5,556C 816.863,556.391 823.197,557.058 829.5,558C 834.58,559.8 837.247,563.467 837.5,569C 836.942,572.583 836.109,576.083 835,579.5C 833.352,580.717 831.519,581.55 829.5,582C 800.865,583.909 772.198,585.242 743.5,586C 735.816,585.903 728.483,587.403 721.5,590.5C 718.544,598.179 719.21,605.512 723.5,612.5C 744.16,613.481 764.826,614.315 785.5,615C 791.869,615.172 797.869,616.672 803.5,619.5C 805.286,623.307 806.452,627.307 807,631.5C 809.255,646.239 808.921,660.906 806,675.5C 804.523,679.744 801.523,682.077 797,682.5C 789.439,682.054 784.105,678.387 781,671.5C 779.482,665.536 778.148,659.536 777,653.5C 775.992,651.741 774.492,650.574 772.5,650C 757.833,648 743.167,648 728.5,650C 725.898,650.883 723.731,652.383 722,654.5C 720.855,668.138 720.188,681.805 720,695.5C 719.667,727.167 719.333,758.833 719,790.5C 718.977,800.281 717.977,809.948 716,819.5C 715.293,821.081 714.46,822.581 713.5,824C 710.623,824.956 707.956,826.289 705.5,828C 693.557,829.249 681.557,829.915 669.5,830C 665.453,830.381 662.953,832.547 662,836.5C 660.023,852.555 660.356,868.555 663,884.5C 663.833,885.333 664.667,886.167 665.5,887C 672.115,888.108 678.782,888.775 685.5,889C 690.099,890.598 692.932,893.765 694,898.5C 694.791,902.926 694.457,907.259 693,911.5C 691.891,913.815 690.057,915.315 687.5,916C 673.94,918.446 660.44,918.612 647,916.5C 642.664,918.099 638.831,917.266 635.5,914C 631.629,910.411 628.629,906.244 626.5,901.5C 627.03,899.198 627.364,896.865 627.5,894.5C 626.741,877.845 626.241,861.178 626,844.5C 625.441,840.814 624.774,837.147 624,833.5C 622.681,831.513 620.848,830.346 618.5,830C 613.411,829.174 608.411,829.508 603.5,831C 601.513,832.319 600.346,834.152 600,836.5C 599.113,843.144 598.446,849.811 598,856.5C 597.896,886.187 597.229,915.853 596,945.5C 595.603,964.277 587.769,968.444 572.5,958C 570.539,954.785 569.373,951.285 569,947.5C 567.775,916.518 567.109,885.518 567,854.5C 566.74,848.449 566.073,842.449 565,836.5C 564.654,834.152 563.487,832.319 561.5,831C 556.833,830.333 552.167,830.333 547.5,831C 545.112,831.303 542.945,832.137 541,833.5C 539.271,856.144 537.938,878.81 537,901.5C 537.112,910.305 533.112,915.971 525,918.5C 524.221,917.272 523.221,916.272 522,915.5C 516.072,916.741 510.072,917.408 504,917.5C 496.856,916.657 489.689,916.49 482.5,917C 468.942,911.272 467.275,903.272 477.5,893C 484.727,889.276 492.393,886.942 500.5,886C 501.931,885.535 503.097,884.701 504,883.5C 505.851,877.992 506.851,872.325 507,866.5C 507.667,856.833 507.667,847.167 507,837.5C 506.027,833.594 503.527,831.427 499.5,831C 483.086,828.732 466.753,829.065 450.5,832C 446.133,834.555 443.633,838.388 443,843.5C 441.668,858.475 440.668,873.475 440,888.5C 441.147,905.668 433.314,915.168 416.5,917C 392.981,919.088 369.481,918.921 346,916.5C 341.561,918.212 337.394,917.712 333.5,915C 329.578,911.749 326.412,907.916 324,903.5C 323.92,892.568 323.587,881.568 323,870.5C 322.902,864.373 322.069,858.373 320.5,852.5C 309.099,846.801 297.433,841.634 285.5,837C 281.406,836.233 277.406,836.566 273.5,838C 262.167,848 250.833,858 239.5,868C 236.945,869.444 234.279,870.611 231.5,871.5C 228.893,870.863 226.56,869.696 224.5,868C 185.263,834.764 149.43,798.264 117,758.5C 117.887,754.058 119.887,750.058 123,746.5C 130.264,737.233 138.264,728.566 147,720.5C 148.667,717.833 150.333,715.167 152,712.5C 152.667,710.5 152.667,708.5 152,706.5C 147.273,694.988 142.94,683.321 139,671.5C 136.039,667.102 131.872,664.935 126.5,665C 113.832,664.934 101.165,664.934 88.5,665C 83.0534,664.539 78.8868,662.039 76,657.5C 73.7275,652.41 72.3942,647.077 72,641.5C 70.0139,599.498 70.0139,557.498 72,515.5C 72.2717,509.412 73.9383,503.745 77,498.5C 79.6259,495.769 82.7926,493.936 86.5,493C 100.474,491.876 114.474,491.209 128.5,491C 134.641,488.859 138.807,484.693 141,478.5C 145.597,468.542 149.097,458.208 151.5,447.5C 150.901,444.298 149.734,441.298 148,438.5C 138.963,429.131 130.296,419.465 122,409.5C 119.913,406.327 118.079,402.994 116.5,399.5C 117,398.5 117.5,397.5 118,396.5C 146.768,363.064 177.601,331.564 210.5,302C 215.327,291.83 223.327,286.497 234.5,286C 240.143,290.302 245.809,294.636 251.5,299C 257.902,306.073 264.902,312.406 272.5,318C 279.24,319.957 285.907,319.624 292.5,317C 299.833,314.333 307.167,311.667 314.5,309C 322.472,306.363 326.639,300.863 327,292.5C 327.208,279.805 327.874,267.138 329,254.5C 329.129,247.367 332.629,243.2 339.5,242C 368.167,238.667 396.833,238.667 425.5,242C 428.743,242.288 431.41,243.622 433.5,246C 435.47,251.648 436.637,257.482 437,263.5C 437.188,277.195 437.855,290.862 439,304.5C 440.285,310.118 443.785,313.285 449.5,314C 465.24,314.878 480.907,314.212 496.5,312C 502.062,310.735 505.228,307.235 506,301.5C 506.981,289.622 507.815,277.788 508.5,266C 507.718,263.26 507.218,260.426 507,257.5C 506.535,256.069 505.701,254.903 504.5,254C 497.354,252.323 490.187,252.156 483,253.5C 471.584,251.349 467.918,244.682 472,233.5C 473.167,231 475,229.167 477.5,228C 494.185,226.594 510.852,226.094 527.5,226.5C 530.01,226.833 532.177,227.833 534,229.5C 535.605,232.648 536.605,235.981 537,239.5C 537.862,263.199 539.196,286.866 541,310.5C 541.652,312.723 543.152,313.89 545.5,314C 551.208,315.583 556.875,315.583 562.5,314C 564.061,313.682 565.228,312.849 566,311.5C 566.993,307.558 567.66,303.558 568,299.5C 568.456,279.665 568.289,259.831 567.5,240C 567.458,230.133 567.958,220.3 569,210.5C 569.299,203.847 572.465,199.513 578.5,197.5 Z M 624.5,343.5 C 640.171,344.77 655.838,345.936 671.5,347C 674.102,347.883 676.269,349.383 678,351.5C 681.532,358.095 683.865,365.095 685,372.5C 687.711,400.764 689.044,429.098 689,457.5C 689.667,522.167 689.667,586.833 689,651.5C 688.967,681.975 686.967,712.308 683,742.5C 680.805,757.38 674.972,770.547 665.5,782C 656.246,789.757 645.579,794.423 633.5,796C 589.205,800.249 544.871,800.583 500.5,797C 471.047,795.204 452.88,780.038 446,751.5C 441.324,727.735 438.991,703.735 439,679.5C 437.132,569.495 437.465,459.495 440,349.5C 444.007,348.059 448.174,347.226 452.5,347C 504.489,345.776 556.489,345.11 608.5,345C 614.016,344.827 619.349,344.327 624.5,343.5 Z M 377.5,384.5 C 383.176,384.334 388.843,384.501 394.5,385C 396.286,385.785 397.786,386.951 399,388.5C 401.593,393.535 403.259,398.868 404,404.5C 404.819,412.153 405.486,419.82 406,427.5C 408.711,540.161 409.045,652.828 407,765.5C 407.349,770.152 405.183,772.652 400.5,773C 392.452,773.775 384.452,773.442 376.5,772C 332.58,762.297 294.746,741.797 263,710.5C 254.333,697.167 245.667,683.833 237,670.5C 228.509,656.514 222.509,641.514 219,625.5C 217.247,614.475 215.414,603.475 213.5,592.5C 214.682,555.763 222.516,520.43 237,486.5C 247.27,467.52 260.77,451.02 277.5,437C 297.379,419.811 319.379,405.811 343.5,395C 354.66,390.55 365.993,387.05 377.5,384.5 Z M 525.5,519.5 C 555.607,518.774 569.44,533.441 567,563.5C 566.5,568 564,570.5 559.5,571C 542.833,571.667 526.167,571.667 509.5,571C 502.444,569.426 499.444,564.926 500.5,557.5C 499.93,538.565 508.264,525.899 525.5,519.5 Z"/></g>
<g><path style="opacity:0.992" fill="#009ffe" d="M 1040.5,306.5 C 1058.37,306.727 1076.21,306.727 1094,306.5C 1102.86,310.689 1109.86,317.023 1115,325.5C 1123.23,369.645 1132.9,413.645 1144,457.5C 1162.83,554.157 1179.83,651.157 1195,748.5C 1195.94,755.132 1196.44,761.798 1196.5,768.5C 1196.46,772.925 1195.8,777.091 1194.5,781C 1177.86,782.911 1161.19,782.911 1144.5,781C 1131.8,780.571 1123.3,774.405 1119,762.5C 1117.51,757.543 1116.18,752.543 1115,747.5C 1109.53,711.987 1103.19,676.653 1096,641.5C 1092.08,638.414 1087.58,636.914 1082.5,637C 1061.89,635.18 1041.23,635.514 1020.5,638C 1016,639.833 1012.83,643 1011,647.5C 1006.45,672.793 1002.12,698.126 998,723.5C 996.978,728.256 995.644,732.923 994,737.5C 993.767,747.866 993.1,758.199 992,768.5C 989.77,776.88 984.27,781.38 975.5,782C 955.452,784.207 935.452,783.873 915.5,781C 911.501,780.332 908.668,778.165 907,774.5C 906.333,768.5 906.333,762.5 907,756.5C 909.533,735.101 912.533,713.768 916,692.5C 936.153,571.068 956.82,449.735 978,328.5C 978.247,321.036 981.747,315.869 988.5,313C 1005.83,309.717 1023.17,307.55 1040.5,306.5 Z M 1049.5,393.5 C 1051.31,395.385 1052.48,397.719 1053,400.5C 1064.08,453.201 1073.08,506.201 1080,559.5C 1078.83,560.893 1077.33,561.727 1075.5,562C 1059.83,564 1044.17,564 1028.5,562C 1026.67,561.727 1025.17,560.893 1024,559.5C 1023.96,548.763 1024.96,538.096 1027,527.5C 1033.96,482.73 1041.46,438.063 1049.5,393.5 Z"/></g>
<g><path style="opacity:0.992" fill="#009ffe" d="M 2185.5,306.5 C 2196.15,307.222 2206.81,308.055 2217.5,309C 2225.37,308.675 2230.54,312.175 2233,319.5C 2235.54,326.772 2237.87,334.105 2240,341.5C 2273.23,480.869 2299.56,621.535 2319,763.5C 2319.67,769.167 2319.67,774.833 2319,780.5C 2313.29,782.86 2307.29,783.86 2301,783.5C 2287.69,783.183 2274.53,781.683 2261.5,779C 2251.16,778.332 2245.33,772.832 2244,762.5C 2235.39,727.835 2228.39,692.835 2223,657.5C 2222.3,652.317 2220.96,647.317 2219,642.5C 2214.28,639.786 2209.11,638.286 2203.5,638C 2183.51,636.748 2163.51,636.415 2143.5,637C 2138.76,638.068 2135.6,640.901 2134,645.5C 2132.04,650.677 2130.71,656.01 2130,661.5C 2126.33,692.21 2122.33,722.877 2118,753.5C 2117.3,762.33 2114.47,770.33 2109.5,777.5C 2104.63,781.622 2098.97,783.455 2092.5,783C 2074.76,784.017 2057.09,783.35 2039.5,781C 2031.75,778.361 2028.42,772.861 2029.5,764.5C 2030.24,756.824 2031.08,749.157 2032,741.5C 2054.71,600.218 2079.05,459.218 2105,318.5C 2105.5,316.01 2107,314.51 2109.5,314C 2113.42,312.687 2117.42,311.687 2121.5,311C 2142.91,308.426 2164.25,306.926 2185.5,306.5 Z M 2172.5,388.5 C 2174.44,393.244 2175.94,398.244 2177,403.5C 2186.94,454.53 2196.11,505.696 2204.5,557C 2204.56,558.711 2203.89,560.044 2202.5,561C 2199.96,562.092 2197.29,562.759 2194.5,563C 2179.14,563.79 2163.81,563.456 2148.5,562C 2147.89,560.769 2147.56,559.436 2147.5,558C 2156.63,501.606 2164.96,445.106 2172.5,388.5 Z"/></g>
<g><path style="opacity:0.992" fill="#009ffe" d="M 3312.5,307.5 C 3322.51,307.334 3332.51,307.5 3342.5,308C 3346.66,308.185 3350.66,309.018 3354.5,310.5C 3356.86,317.303 3358.36,324.303 3359,331.5C 3366.52,420.335 3370.52,509.335 3371,598.5C 3371.42,640.837 3371.09,683.17 3370,725.5C 3369.75,739.609 3368.41,753.609 3366,767.5C 3363.97,776.929 3358.14,781.763 3348.5,782C 3336.44,782.915 3324.44,782.581 3312.5,781C 3304.62,776.123 3297.62,770.123 3291.5,763C 3287,760.879 3282.67,761.212 3278.5,764C 3267.34,772.415 3255,778.415 3241.5,782C 3223.67,784.138 3206.01,783.138 3188.5,779C 3183.97,777.478 3179.63,775.478 3175.5,773C 3157.11,756.391 3145.27,735.891 3140,711.5C 3137.7,695.92 3136.37,680.254 3136,664.5C 3135.33,639.5 3135.33,614.5 3136,589.5C 3135.9,561.832 3140.9,535.165 3151,509.5C 3163.92,487.595 3183.09,474.428 3208.5,470C 3229.34,466.103 3250.34,463.436 3271.5,462C 3280.77,461.389 3286.27,456.555 3288,447.5C 3288.94,443.886 3289.61,440.219 3290,436.5C 3291.26,404.512 3292.26,372.512 3293,340.5C 3293.16,331.523 3294.83,322.856 3298,314.5C 3302.04,310.33 3306.88,307.996 3312.5,307.5 Z M 3257.5,522.5 C 3265.57,522.137 3273.57,522.637 3281.5,524C 3285.01,526.169 3287.18,529.336 3288,533.5C 3288.93,538.799 3289.6,544.133 3290,549.5C 3290.17,570.833 3290.33,592.167 3290.5,613.5C 3290.61,638.189 3290.11,662.856 3289,687.5C 3288.78,695.77 3285.94,702.937 3280.5,709C 3266.5,717.253 3251.67,723.419 3236,727.5C 3230.14,726.644 3226.47,723.311 3225,717.5C 3224.12,714.211 3223.45,710.877 3223,707.5C 3219.71,659.162 3219.71,610.829 3223,562.5C 3224.27,551.339 3228.27,541.339 3235,532.5C 3241.68,527.115 3249.18,523.781 3257.5,522.5 Z"/></g>
<g><path style="opacity:0.99" fill="#009ffe" d="M 1613.5,395.5 C 1619.79,395.943 1626.12,396.109 1632.5,396C 1634.94,396.774 1636.77,398.274 1638,400.5C 1640.27,405.64 1641.94,410.973 1643,416.5C 1645.67,429.836 1648.33,443.169 1651,456.5C 1652.87,464.699 1658.04,468.866 1666.5,469C 1682.74,469.274 1698.74,471.274 1714.5,475C 1718.56,478.463 1720.72,482.963 1721,488.5C 1721.75,495.882 1721.41,503.215 1720,510.5C 1717.58,517.811 1712.41,521.311 1704.5,521C 1691.81,521.819 1679.14,522.819 1666.5,524C 1660.65,527.866 1657.48,533.366 1657,540.5C 1655.09,556.769 1654.09,573.102 1654,589.5C 1653.33,627.833 1653.33,666.167 1654,704.5C 1654.25,729.113 1656.92,753.447 1662,777.5C 1662.5,781.821 1662.67,786.154 1662.5,790.5C 1658.13,792.678 1653.46,794.178 1648.5,795C 1634.08,796.359 1620.08,794.692 1606.5,790C 1602.67,787.5 1599.5,784.333 1597,780.5C 1590.02,765.874 1583.02,751.208 1576,736.5C 1573.57,729.684 1571.9,722.684 1571,715.5C 1569.79,670.178 1569.12,624.845 1569,579.5C 1569.21,563.685 1567.88,548.018 1565,532.5C 1563.56,528.725 1561.06,525.892 1557.5,524C 1544.85,522.952 1532.18,521.952 1519.5,521C 1518.07,520.535 1516.9,519.701 1516,518.5C 1514.79,509.509 1515.12,500.509 1517,491.5C 1520.37,486.223 1525.2,483.057 1531.5,482C 1544.24,479.589 1556.57,475.922 1568.5,471C 1570.33,469.167 1572.17,467.333 1574,465.5C 1583.53,450.775 1591.2,435.109 1597,418.5C 1601.53,410.099 1607.03,402.432 1613.5,395.5 Z"/></g>
<g><path style="opacity:0.99" fill="#009ffe" d="M 2446.5,395.5 C 2452.97,394.345 2458.47,396.011 2463,400.5C 2465.99,405.811 2467.99,411.478 2469,417.5C 2471.34,431.23 2474.01,444.897 2477,458.5C 2478.03,462.722 2480.19,466.222 2483.5,469C 2498.79,470.193 2514.12,471.193 2529.5,472C 2542.26,473.98 2547.93,481.48 2546.5,494.5C 2546.21,501.242 2545.38,507.909 2544,514.5C 2541.44,518.03 2537.94,519.863 2533.5,520C 2519.75,520.637 2506.08,521.97 2492.5,524C 2487.5,527.143 2484.34,531.643 2483,537.5C 2482.33,542.167 2481.67,546.833 2481,551.5C 2480.83,565.333 2480.67,579.167 2480.5,593C 2481.62,658.842 2482.79,724.675 2484,790.5C 2482.56,792.211 2480.73,793.378 2478.5,794C 2465.71,795.988 2453.04,795.322 2440.5,792C 2436.87,791.184 2433.87,789.35 2431.5,786.5C 2415.9,768.699 2404.73,748.365 2398,725.5C 2396.98,719.207 2396.31,712.874 2396,706.5C 2394.78,662.179 2394.11,617.846 2394,573.5C 2393.98,560.747 2392.98,548.08 2391,535.5C 2389.57,526.742 2384.41,522.242 2375.5,522C 2367.14,521.624 2358.81,520.957 2350.5,520C 2345,519.833 2342.17,517 2342,511.5C 2341.33,505.5 2341.33,499.5 2342,493.5C 2342.13,490.629 2343.3,488.295 2345.5,486.5C 2358.64,482.048 2371.97,478.214 2385.5,475C 2389.96,473.021 2393.79,470.187 2397,466.5C 2407.75,446.672 2418.75,427.005 2430,407.5C 2433.93,401.139 2439.43,397.139 2446.5,395.5 Z"/></g>
<g><path style="opacity:0.991" fill="#009ffe" d="M 1261.5,462.5 C 1275.12,461.558 1288.46,463.058 1301.5,467C 1309.29,467.188 1316.95,468.188 1324.5,470C 1325.7,470.903 1326.53,472.069 1327,473.5C 1327.96,478.123 1328.62,482.79 1329,487.5C 1329.33,499.833 1329.67,512.167 1330,524.5C 1330.08,583.512 1330.75,642.512 1332,701.5C 1332.26,709.653 1334.26,717.319 1338,724.5C 1340.15,725.885 1342.49,726.885 1345,727.5C 1350.52,726.462 1356.02,725.295 1361.5,724C 1371.39,717.886 1381.73,712.552 1392.5,708C 1395.84,705.328 1397.67,701.828 1398,697.5C 1399.11,688.204 1399.78,678.87 1400,669.5C 1400.33,618.5 1400.67,567.5 1401,516.5C 1401.24,504.317 1401.74,492.15 1402.5,480C 1399.05,472.376 1401.38,467.376 1409.5,465C 1415.69,464.001 1421.85,463.168 1428,462.5C 1441.18,463.376 1454.35,464.876 1467.5,467C 1473.4,467.71 1478.9,469.544 1484,472.5C 1486.29,477.097 1485.79,481.263 1482.5,485C 1484.03,496.107 1484.86,507.274 1485,518.5C 1485.63,583.837 1485.3,649.171 1484,714.5C 1483.74,730.926 1482.4,747.259 1480,763.5C 1479.08,775.086 1472.91,781.253 1461.5,782C 1449.44,782.915 1437.44,782.581 1425.5,781C 1418.22,775.054 1411.55,768.388 1405.5,761C 1404.27,760.219 1402.94,759.719 1401.5,759.5C 1392.16,765.504 1382.5,771.004 1372.5,776C 1358.73,780.587 1344.56,782.754 1330,782.5C 1289.88,786.096 1263.22,768.763 1250,730.5C 1247.35,718.656 1246.02,706.656 1246,694.5C 1244.41,689.976 1243.41,685.309 1243,680.5C 1239.93,612.488 1239.93,544.488 1243,476.5C 1243.53,472.554 1245.37,469.388 1248.5,467C 1252.79,465.021 1257.12,463.521 1261.5,462.5 Z"/></g>
<g><path style="opacity:0.991" fill="#009ffe" d="M 2872.5,462.5 C 2899.12,458.891 2918.62,468.891 2931,492.5C 2935.7,492.836 2940.2,491.67 2944.5,489C 2965.93,474.288 2989.59,465.788 3015.5,463.5C 3048.41,465.608 3071.58,481.608 3085,511.5C 3090.08,532.848 3092.74,554.515 3093,576.5C 3094.72,633.169 3094.72,689.836 3093,746.5C 3092.65,754.583 3091.65,762.583 3090,770.5C 3088.27,778.233 3083.43,782.399 3075.5,783C 3058.8,783.872 3042.13,783.539 3025.5,782C 3018.74,780.237 3014.24,776.07 3012,769.5C 3010.23,762.276 3009.23,754.943 3009,747.5C 3009.18,681.448 3007.51,615.448 3004,549.5C 3003.56,542.416 3002.56,535.416 3001,528.5C 2998.93,524.463 2995.59,522.796 2991,523.5C 2974.67,525.606 2960,531.606 2947,541.5C 2944.36,545.072 2942.7,549.072 2942,553.5C 2940.19,564.084 2939.19,574.751 2939,585.5C 2938.87,638.843 2938.2,692.176 2937,745.5C 2936.72,755.884 2934.72,765.884 2931,775.5C 2928.26,779.619 2924.43,781.786 2919.5,782C 2901.14,782.813 2882.81,782.48 2864.5,781C 2862.11,780.697 2859.94,779.863 2858,778.5C 2856.26,774.351 2855.26,770.017 2855,765.5C 2854.67,759.5 2854.33,753.5 2854,747.5C 2853.33,663.833 2853.33,580.167 2854,496.5C 2853.89,486.598 2855.22,476.932 2858,467.5C 2862.65,465.143 2867.49,463.477 2872.5,462.5 Z"/></g>
<g><path style="opacity:0.991" fill="#009ffe" d="M 3531.5,462.5 C 3553.43,461.059 3574.76,463.892 3595.5,471C 3618.98,481.145 3633.81,498.645 3640,523.5C 3648.17,554.706 3650.84,586.373 3648,618.5C 3648.08,629.211 3642.92,635.377 3632.5,637C 3627.22,638.026 3621.88,638.693 3616.5,639C 3588.15,639.179 3559.82,639.846 3531.5,641C 3525.69,641.269 3520.36,642.936 3515.5,646C 3513.44,648.068 3512.27,650.568 3512,653.5C 3509.93,672.331 3510.93,690.997 3515,709.5C 3518.42,719.129 3525.25,723.629 3535.5,723C 3571.17,722.964 3606.83,722.964 3642.5,723C 3653.02,722.858 3658.19,728.024 3658,738.5C 3659.07,749.393 3658.07,760.06 3655,770.5C 3652.74,773.433 3649.9,775.6 3646.5,777C 3637.64,779.233 3628.64,780.566 3619.5,781C 3582.16,782.778 3544.83,782.778 3507.5,781C 3482.38,779.192 3462.21,768.359 3447,748.5C 3434.48,731.621 3427.48,712.621 3426,691.5C 3421.75,647.797 3421.75,604.131 3426,560.5C 3427.15,536.038 3434.49,513.705 3448,493.5C 3457.81,482.027 3469.98,474.193 3484.5,470C 3500.14,466.393 3515.8,463.893 3531.5,462.5 Z M 3534.5,522.5 C 3541.84,522.334 3549.17,522.5 3556.5,523C 3559.91,523.117 3562.41,524.617 3564,527.5C 3567.31,540.104 3568.81,552.937 3568.5,566C 3568.33,571.167 3568.17,576.333 3568,581.5C 3567.31,584.057 3565.81,585.891 3563.5,587C 3549.56,588.595 3535.56,588.928 3521.5,588C 3518.03,587.681 3515.19,586.181 3513,583.5C 3509.54,567.012 3510.21,550.678 3515,534.5C 3519.58,527.299 3526.08,523.299 3534.5,522.5 Z"/></g>
<g><path style="opacity:0.991" fill="#009ffe" d="M 1864.5,462.5 C 1872.48,463.157 1880.48,463.657 1888.5,464C 1903.99,466.594 1919.33,469.928 1934.5,474C 1947.42,479.261 1957.59,487.761 1965,499.5C 1973.96,515.715 1979.29,533.048 1981,551.5C 1982.61,565.791 1983.61,580.124 1984,594.5C 1984.31,623.692 1984.47,652.859 1984.5,682C 1981.7,700.4 1976.87,718.233 1970,735.5C 1961.67,749.168 1951.17,761.001 1938.5,771C 1928.34,776.941 1917.34,780.275 1905.5,781C 1893.36,782.022 1881.19,782.522 1869,782.5C 1826.82,789.561 1792.49,776.561 1766,743.5C 1755.86,728.745 1749.86,712.412 1748,694.5C 1741.5,643.404 1742.17,592.404 1750,541.5C 1752.51,518.98 1762.01,500.146 1778.5,485C 1789.29,478.515 1800.62,473.182 1812.5,469C 1829.85,465.836 1847.19,463.67 1864.5,462.5 Z M 1867.5,522.5 C 1877.87,520.611 1885.37,524.278 1890,533.5C 1892.67,542.833 1895.33,552.167 1898,561.5C 1898.35,570.668 1898.19,579.834 1897.5,589C 1900.25,625.248 1899.42,661.414 1895,697.5C 1886.92,720.947 1870.76,729.113 1846.5,722C 1841.29,720.983 1837.46,718.149 1835,713.5C 1829.24,695.821 1826.07,677.655 1825.5,659C 1826.28,632.51 1826.78,606.01 1827,579.5C 1828.31,566.973 1830.64,554.64 1834,542.5C 1841.19,528.997 1852.35,522.33 1867.5,522.5 Z"/></g>
<g><path style="opacity:0.99" fill="#009ffe" d="M 2681.5,464.5 C 2694.49,465.071 2707.49,465.571 2720.5,466C 2753.61,469.319 2775.44,486.819 2786,518.5C 2791.94,538.731 2795.27,559.398 2796,580.5C 2796.67,595.167 2796.67,609.833 2796,624.5C 2795.59,627.232 2794.92,629.899 2794,632.5C 2791.7,634.068 2789.2,635.235 2786.5,636C 2780.53,636.907 2774.53,637.573 2768.5,638C 2737.83,638.937 2707.16,639.937 2676.5,641C 2671.12,640.962 2666.12,642.296 2661.5,645C 2657.91,649.083 2656.24,653.916 2656.5,659.5C 2657.4,670.828 2658.23,682.161 2659,693.5C 2658.88,702.799 2661.71,710.965 2667.5,718C 2673.76,721.232 2680.43,722.899 2687.5,723C 2715.68,723.215 2743.85,722.715 2772,721.5C 2780.63,721.855 2789.13,723.022 2797.5,725C 2800.55,727.051 2802.39,729.885 2803,733.5C 2803.67,741.833 2803.67,750.167 2803,758.5C 2802.48,763.4 2801.14,768.066 2799,772.5C 2797.27,774.617 2795.1,776.117 2792.5,777C 2782.29,779.235 2771.95,780.568 2761.5,781C 2727.5,782.99 2693.5,782.99 2659.5,781C 2621.78,778.887 2595.62,760.387 2581,725.5C 2578.22,718.036 2576.22,710.37 2575,702.5C 2570.96,654.52 2570.63,606.52 2574,558.5C 2578.96,491.7 2614.79,460.366 2681.5,464.5 Z M 2687.5,522.5 C 2692.84,522.334 2698.18,522.501 2703.5,523C 2707.49,524.448 2709.99,527.281 2711,531.5C 2714.73,548.319 2716.73,565.319 2717,582.5C 2716.17,584.667 2714.67,586.167 2712.5,587C 2697.55,588.582 2682.55,588.915 2667.5,588C 2663.26,587.827 2660.09,585.994 2658,582.5C 2655.87,567.8 2656.21,553.133 2659,538.5C 2661.36,534.562 2664.53,531.395 2668.5,529C 2674.71,526.098 2681.04,523.932 2687.5,522.5 Z"/></g>
<g><path style="opacity:0.979" fill="#009ffe" d="M 526.5,489.5 C 540.058,487.64 552.725,490.14 564.5,497C 577.356,504.872 586.856,515.705 593,529.5C 594.835,538.879 596.168,548.545 597,558.5C 597.667,581.833 597.667,605.167 597,628.5C 596.787,634.639 595.787,640.639 594,646.5C 592.833,649 591,650.833 588.5,652C 576.528,656.002 569.695,651.836 568,639.5C 567.667,629.833 567.333,620.167 567,610.5C 566.065,605.272 562.899,602.772 557.5,603C 542.5,602.333 527.5,602.333 512.5,603C 509.768,603.413 507.101,604.08 504.5,605C 503.107,606.171 502.273,607.671 502,609.5C 501.124,619.187 500.124,628.854 499,638.5C 495.936,651.933 488.102,656.099 475.5,651C 472.095,647.8 470.428,643.8 470.5,639C 470.564,611.852 471.064,584.685 472,557.5C 471.71,545.861 473.377,534.528 477,523.5C 485.968,510.863 497.135,500.696 510.5,493C 512.112,492.28 513.612,492.446 515,493.5C 518.829,491.836 522.662,490.503 526.5,489.5 Z M 525.5,519.5 C 508.264,525.899 499.93,538.565 500.5,557.5C 499.444,564.926 502.444,569.426 509.5,571C 526.167,571.667 542.833,571.667 559.5,571C 564,570.5 566.5,568 567,563.5C 569.44,533.441 555.607,518.774 525.5,519.5 Z"/></g>
<g><path style="opacity:0.97" fill="#009ffe" d="M 638.5,489.5 C 645.251,488.295 651.085,489.962 656,494.5C 656.546,540.479 655.879,586.479 654,632.5C 653.851,638.342 652.851,644.008 651,649.5C 645.815,652.75 640.315,653.25 634.5,651C 633.809,649.933 633.309,648.766 633,647.5C 631.898,635.862 631.232,624.195 631,612.5C 630.609,574.474 630.443,536.474 630.5,498.5C 631.776,494.226 634.443,491.226 638.5,489.5 Z"/></g>
</svg>
